<?xml version="1.0" encoding="UTF-8"?>
<svg version="1.1" xmlns="http://www.w3.org/2000/svg" width="500" height="321">
<path d="M0 0 C165 0 330 0 500 0 C500 105.93 500 211.86 500 321 C335 321 170 321 0 321 C0 215.07 0 109.14 0 0 Z " fill="#F6F6F6" transform="translate(0,0)"/>
<path d="M0 0 C0.93175049 0.20363159 0.93175049 0.20363159 1.88232422 0.41137695 C9.56473172 2.06983931 17.26914985 3.58466142 25 5 C26.43448486 5.26296875 26.43448486 5.26296875 27.89794922 5.53125 C44.20267411 8.3378729 60.62988753 8.31235756 77.125 8.375 C78.77116806 8.38691879 78.77116806 8.38691879 80.45059204 8.39907837 C105.54561977 8.53845485 129.41884041 4.82067666 154 0 C151.1294628 22.92221723 148.22962936 45.84061458 145.28829956 68.75386047 C145.10069785 70.21546387 144.91321206 71.67708216 144.7258606 73.13871765 C143.7074255 81.08358 142.67609105 89.02654983 141.61550903 96.96591187 C141.33297709 99.09250611 141.0544715 101.21963965 140.78024292 103.34732056 C138.90376479 117.86755959 137.1072543 131.0482227 128 143 C127.2575 144.03125 126.515 145.0625 125.75 146.125 C113.62193459 158.80434112 96.36667776 163.90697124 79.19335938 164.30322266 C61.60550643 164.3736037 44.80161577 161.10561779 31.1796875 149.2265625 C21.2665821 139.10027204 16.9220853 128.20436399 14.95214844 114.37670898 C14.7881039 113.29000381 14.62405937 112.20329863 14.45504379 111.08366299 C13.95392173 107.72454283 13.47303164 104.36318279 13 101 C12.85722122 99.9886562 12.71444244 98.97731239 12.56733704 97.93532181 C11.59109644 90.95320408 10.67337093 83.96395541 9.765625 76.97265625 C9.48015206 74.79353819 9.19439986 72.6144567 8.90838623 70.43540955 C8.31810505 65.93272433 7.73010532 61.42974992 7.14404297 56.92651367 C6.39199726 51.14821154 5.63559086 45.37049056 4.87771988 39.59294987 C4.29155545 35.12288393 3.70681989 30.65263213 3.122612 26.1823101 C2.84376517 24.04874747 2.56465801 21.91521885 2.28528595 19.78172493 C1.89880811 16.82739414 1.51406539 13.87284292 1.12988281 10.91821289 C1.01460739 10.03895645 0.89933197 9.15970001 0.78056335 8.25379944 C0 2.2293299 0 2.2293299 0 0 Z " fill="#6564C4" transform="translate(173,79)"/>
<path d="M0 0 C0.93175049 0.20363159 0.93175049 0.20363159 1.88232422 0.41137695 C9.56473172 2.06983931 17.26914985 3.58466142 25 5 C26.43448486 5.26296875 26.43448486 5.26296875 27.89794922 5.53125 C44.20267411 8.3378729 60.62988753 8.31235756 77.125 8.375 C78.77116806 8.38691879 78.77116806 8.38691879 80.45059204 8.39907837 C105.54561977 8.53845485 129.41884041 4.82067666 154 0 C151.1294628 22.92221723 148.22962936 45.84061458 145.28829956 68.75386047 C145.10069785 70.21546387 144.91321206 71.67708216 144.7258606 73.13871765 C143.7074255 81.08358 142.67609105 89.02654983 141.61550903 96.96591187 C141.33297709 99.09250611 141.0544715 101.21963965 140.78024292 103.34732056 C138.90376479 117.86755959 137.1072543 131.0482227 128 143 C127.2575 144.03125 126.515 145.0625 125.75 146.125 C113.62193459 158.80434112 96.36667776 163.90697124 79.19335938 164.30322266 C61.60550643 164.3736037 44.80161577 161.10561779 31.1796875 149.2265625 C21.2665821 139.10027204 16.9220853 128.20436399 14.95214844 114.37670898 C14.7881039 113.29000381 14.62405937 112.20329863 14.45504379 111.08366299 C13.95392173 107.72454283 13.47303164 104.36318279 13 101 C12.85722122 99.9886562 12.71444244 98.97731239 12.56733704 97.93532181 C11.59109644 90.95320408 10.67337093 83.96395541 9.765625 76.97265625 C9.48015206 74.79353819 9.19439986 72.6144567 8.90838623 70.43540955 C8.31810505 65.93272433 7.73010532 61.42974992 7.14404297 56.92651367 C6.39199726 51.14821154 5.63559086 45.37049056 4.87771988 39.59294987 C4.29155545 35.12288393 3.70681989 30.65263213 3.122612 26.1823101 C2.84376517 24.04874747 2.56465801 21.91521885 2.28528595 19.78172493 C1.89880811 16.82739414 1.51406539 13.87284292 1.12988281 10.91821289 C1.01460739 10.03895645 0.89933197 9.15970001 0.78056335 8.25379944 C0 2.2293299 0 2.2293299 0 0 Z M6 6 C6.61109414 18.20172397 8.04844284 30.2410737 9.6171875 42.3515625 C9.87782436 44.3840368 10.13824705 46.41653857 10.39846802 48.44906616 C10.9417507 52.68357171 11.48849667 56.91761235 12.03759766 61.15136719 C12.73659818 66.5440788 13.425483 71.93802791 14.11160088 77.33239174 C14.64580474 81.52144591 15.18610919 85.70969686 15.72812271 89.89774704 C15.98447233 91.88515724 16.23882202 93.87282658 16.49102402 95.86076736 C18.3138833 115.13040698 18.3138833 115.13040698 24.9375 133 C25.45441406 133.88300781 25.97132813 134.76601562 26.50390625 135.67578125 C28.17457176 138.27120155 29.93817361 140.70027056 32 143 C34.96855319 142.52503149 36.41328438 141.70982161 38.9375 139.9375 C44.75971555 136.45929331 52.71500424 137.18186579 59.08984375 138.76953125 C62.08143288 139.28062933 62.08143288 139.28062933 64.63769531 137.49853516 C67.74221638 134.21498115 67.73042636 131.55542758 67.70703125 127.25390625 C67.72219788 126.49405426 67.7373645 125.73420227 67.75299072 124.95132446 C67.79631606 122.48808142 67.8048837 120.02608908 67.8125 117.5625 C67.83512152 115.87993558 67.85978303 114.19739736 67.88647461 112.51489258 C67.94529335 108.41316115 67.97569822 104.31194458 67.99145508 100.20983887 C67.99919606 98.20790944 68.01199999 96.20600117 68.02539062 94.20410156 C68.06249231 88.4685189 68.06123173 82.73537166 68 77 C60.03261492 76.73182526 52.43433349 77.76544442 44.5625 78.9375 C43.28439453 79.11990234 42.00628906 79.30230469 40.68945312 79.49023438 C34.66818099 80.13296212 34.66818099 80.13296212 29 82 C28.90847656 81.35675781 28.81695312 80.71351563 28.72265625 80.05078125 C27.73874644 75.89708631 26.09838357 72.11113187 24.4375 68.1875 C24.10814453 67.39923828 23.77878906 66.61097656 23.43945312 65.79882812 C22.63041094 63.86416204 21.81576148 61.93184247 21 60 C23.72927681 60.14396859 26.45842731 60.28973986 29.1875 60.4375 C30.01032471 60.48189209 30.83314941 60.52628418 31.6809082 60.57202148 C36.35805168 60.83123008 41.02053888 61.1541409 45.6875 61.5625 C52.79642909 62.14430494 59.87213763 62.08872858 67 62 C66.33735914 55.93735778 66.33735914 55.93735778 65 50 C65.495 50.16242188 65.99 50.32484375 66.5 50.4921875 C69.99483191 51.20207523 73.45042237 51.14429118 77 51.125 C78.06734375 51.13080078 78.06734375 51.13080078 79.15625 51.13671875 C82.57538017 51.13033978 85.73293006 51.07200732 89 50 C88.67 51.051875 88.34 52.10375 88 53.1875 C87.14926051 56.4309443 86.90921617 58.71476009 87 62 C95.64921304 62.1612698 104.19043448 61.65072193 112.8125 61 C115.36053605 60.810593 117.90870963 60.62302524 120.45703125 60.4375 C121.57053955 60.35371094 122.68404785 60.26992187 123.83129883 60.18359375 C126.89598002 60.00602689 129.93100741 59.96761263 133 60 C132.63648438 60.83978394 132.63648438 60.83978394 132.265625 61.6965332 C131.17147225 64.23281085 130.08565746 66.77257504 129 69.3125 C128.42765625 70.63411133 128.42765625 70.63411133 127.84375 71.98242188 C127.4828125 72.82998047 127.121875 73.67753906 126.75 74.55078125 C126.41484375 75.33106689 126.0796875 76.11135254 125.734375 76.9152832 C124.83387308 79.10321451 124.83387308 79.10321451 125 82 C123.7315625 81.70351562 122.463125 81.40703125 121.15625 81.1015625 C115.96745355 79.95052667 110.75982688 79.12531009 105.5 78.375 C104.61441406 78.2409375 103.72882813 78.106875 102.81640625 77.96875 C97.14991137 77.15330727 91.72445101 76.87201431 86 77 C85.92525774 84.00085839 85.95317047 90.99898506 86 98 C86.00587944 99.52050774 86.01173761 101.04101555 86.01757812 102.56152344 C86.03735294 106.72176373 86.08760388 110.88092942 86.15359497 115.04067993 C86.17617627 116.72025277 86.19008906 118.39996479 86.19528198 120.0796814 C86.20451962 122.47205215 86.24522704 124.86203411 86.29296875 127.25390625 C86.28904114 127.97605316 86.28511353 128.69820007 86.28106689 129.44223022 C86.39089884 133.20811423 86.74495903 134.73257917 89.3840332 137.49975586 C92.85661409 139.49126399 94.10355693 138.85013303 98 138 C104.85785155 137.44866356 110.35192621 137.38016392 116.28125 141.125 C118.27266553 142.30245536 118.27266553 142.30245536 122 142 C134.81620281 130.64604852 135.5947795 112.44938963 137.55078125 96.703125 C137.85618813 94.34030211 138.16294828 91.97765378 138.47099304 89.61517334 C139.11047869 84.6843163 139.73900519 79.75223765 140.35864258 74.81884766 C141.15157183 68.50672289 141.96367732 62.19726324 142.78294086 55.88850784 C143.566434 49.84840497 144.34013728 43.80705972 145.11328125 37.765625 C145.26072596 36.6203257 145.40817066 35.4750264 145.56008339 34.29502106 C145.97685738 31.04401708 146.38662824 27.79220927 146.79418945 24.54003906 C146.91724457 23.58712479 147.04029968 22.63421051 147.16708374 21.65242004 C147.81828851 16.38747438 148.11966087 11.30519929 148 6 C146.94594971 6.16604736 146.94594971 6.16604736 145.87060547 6.33544922 C137.59032591 7.6291167 129.30058162 8.84382687 121 10 C119.64914307 10.19094238 119.64914307 10.19094238 118.27099609 10.38574219 C81.39271547 15.3505562 42.42740353 12.72265387 6 6 Z " fill="#020308" transform="translate(173,79)"/>
<path d="M0 0 C4.62 0 9.24 0 14 0 C13.125 9.75 13.125 9.75 12 12 C12.50958252 11.8460376 13.01916504 11.6920752 13.54418945 11.53344727 C16.79238655 10.82787905 19.97477609 10.66468548 23.29296875 10.46484375 C23.99843338 10.42186661 24.70389801 10.37888947 25.43074036 10.33460999 C26.92254966 10.24461052 28.41447222 10.15647144 29.90649414 10.07006836 C32.16259286 9.93894756 34.41819622 9.80100479 36.67382812 9.66210938 C43.78803758 9.23378472 50.8696681 8.87887318 58 9 C54.8727491 18.53421369 54.8727491 18.53421369 53 23 C44.33646378 23.37184775 35.92769192 22.21222459 27.375 21 C25.97534535 20.80667574 24.5756061 20.61396298 23.17578125 20.421875 C19.78285106 19.95495283 16.3911361 19.4797995 13 19 C13.03029297 19.88856689 13.06058594 20.77713379 13.09179688 21.69262695 C13.74219929 41.13840853 14.14521361 60.54137655 14 80 C9.38 80 4.76 80 0 80 C-0.15191922 59.64282432 0.30645828 39.34327567 1 19 C0.1435791 19.12117188 -0.7128418 19.24234375 -1.59521484 19.3671875 C-4.81878163 19.81992342 -8.04309024 20.26644389 -11.26806641 20.70898438 C-12.65512245 20.90056848 -14.04185426 21.09451727 -15.42822266 21.29101562 C-23.30430772 22.40560961 -31.02910119 23.34211905 -39 23 C-39.83764268 21.04350603 -40.66999059 19.08474444 -41.5 17.125 C-42.19609375 15.48917969 -42.19609375 15.48917969 -42.90625 13.8203125 C-44 11 -44 11 -44 9 C-37.39682977 9.2794755 -30.79399115 9.56590198 -24.19140625 9.85888672 C-22.1263522 9.95019648 -20.06125047 10.04043703 -17.99609375 10.12939453 C-15.24718126 10.24860757 -12.49858589 10.37350781 -9.75 10.5 C-8.49268066 10.55305298 -8.49268066 10.55305298 -7.20996094 10.60717773 C-3.93296763 10.7627226 -1.12884893 10.95705036 2 12 C1.505 10.700625 1.505 10.700625 1 9.375 C0 6 0 6 0 0 Z " fill="#F3F3F3" transform="translate(243,133)"/>
<path d="M0 0 C8.01494846 -0.27908417 15.64749025 0.80161489 23.5625 2 C24.85736328 2.19078125 26.15222656 2.3815625 27.48632812 2.578125 C30.65845229 3.04633521 33.82957613 3.52043473 37 4 C37 4.33 37 4.66 37 5 C34.03 5 31.06 5 28 5 C28 6.32 28 7.64 28 9 C32.455 9.99 32.455 9.99 37 11 C36.67 11.66 36.34 12.32 36 13 C32.44219804 12.39009109 29.3171411 11.4216319 26 10 C26 8.02 26 6.04 26 4 C25.01 4 24.02 4 23 4 C23 5.98 23 7.96 23 10 C21.42298018 10.55978184 19.83800758 11.09719401 18.25 11.625 C17.36828125 11.92664063 16.4865625 12.22828125 15.578125 12.5390625 C12.58982529 13.07333427 11.50076998 12.62433191 9 11 C9.350625 11.5775 9.70125 12.155 10.0625 12.75 C11.20021564 15.48051754 10.96938066 16.25342145 10 19 C9.649375 20.0725 9.29875 21.145 8.9375 22.25 C8.628125 23.1575 8.31875 24.065 8 25 C6.02 25 4.04 25 2 25 C2 25.99 2 26.98 2 28 C3.98 28 5.96 28 8 28 C8.55978184 29.57701982 9.09719401 31.16199242 9.625 32.75 C9.92664063 33.63171875 10.22828125 34.5134375 10.5390625 35.421875 C11.07333427 38.41017471 10.62433191 39.49923002 9 42 C9.928125 41.62875 10.85625 41.2575 11.8125 40.875 C13.3903125 40.441875 13.3903125 40.441875 15 40 C15.99 40.66 16.98 41.32 18 42 C19.65549531 42.38499891 21.3222433 42.72793135 23 43 C23 44.98 23 46.96 23 49 C23.99 49 24.98 49 26 49 C26 47.02 26 45.04 26 43 C27.57701982 42.44021816 29.16199242 41.90280599 30.75 41.375 C31.63171875 41.07335937 32.5134375 40.77171875 33.421875 40.4609375 C36.41017471 39.92666573 37.49923002 40.37566809 40 42 C39.608125 41.175 39.21625 40.35 38.8125 39.5 C37.69295674 34.67735212 38.99989606 32.46177034 41 28 C42.65 28 44.3 28 46 28 C46 27.01 46 26.02 46 25 C44.35 25 42.7 25 41 25 C41 24.67 41 24.34 41 24 C43.31 24 45.62 24 48 24 C47.938125 23.236875 47.87625 22.47375 47.8125 21.6875 C48.03403312 18.51219194 48.71775032 18.04264341 51 16 C48.57384721 53.86075281 48.57384721 53.86075281 36 65 C32.04179296 65 31.5446235 64.92292011 28.5 63 C22.31179535 59.72048331 15.24827554 60.29128534 8.5625 61.75 C6 62 6 62 3.3840332 60.49975586 C0.25426182 57.21806316 0.26950248 54.56851041 0.29296875 50.25390625 C0.27780212 49.49405426 0.2626355 48.73420227 0.24700928 47.95132446 C0.20368394 45.48808142 0.1951163 43.02608908 0.1875 40.5625 C0.16487848 38.87993558 0.14021697 37.19739736 0.11352539 35.51489258 C0.05470665 31.41316115 0.02430178 27.31194458 0.00854492 23.20983887 C0.00080394 21.20790944 -0.01199999 19.20600117 -0.02539062 17.20410156 C-0.06249231 11.4685189 -0.06123173 5.73537166 0 0 Z " fill="#6363BF" transform="translate(259,156)"/>
<path d="M0 0 C2.45784216 1.23415053 4.86862919 2.51421091 7.25390625 3.8828125 C7.25390625 4.5428125 7.25390625 5.2028125 7.25390625 5.8828125 C8.38828125 5.2228125 9.52265625 4.5628125 10.69140625 3.8828125 C15.28477043 1.59832518 19.19287549 1.10491333 24.25390625 1.8828125 C28.61647124 3.49857731 30.61669208 5.15061467 33.25390625 8.8828125 C18.02679129 20.07243486 0.71181985 24.26344862 -17.96386719 21.56201172 C-28.65292636 19.56358016 -39.47220334 16.36901798 -46.74609375 7.8828125 C-41.34742144 3.20396316 -38.16506861 1.66428354 -30.95703125 1.7109375 C-28.28302958 1.91881042 -26.20709067 2.85739712 -23.74609375 3.8828125 C-19.72942928 3.58156266 -17.10852677 2.00645441 -13.74609375 -0.1171875 C-8.81195305 -1.76190107 -4.79876776 -1.95227252 0 0 Z " fill="#639305" transform="translate(256.74609375,217.1171875)"/>
<path d="M0 0 C4.18098639 2.41976501 6.63355001 4.61390806 8.7578125 9.046875 C9.64211236 14.86851572 9.9909099 21.10223118 6.6328125 26.171875 C3.32178836 29.87838258 0.15406693 31.76075507 -4.859375 32.359375 C-9.41475114 32.55689808 -12.517217 32.38958833 -16.6796875 30.421875 C-22.07959619 25.41708158 -24.063762 21.09888104 -24.4609375 13.80078125 C-24.09857199 9.23885833 -22.43718303 6.27222678 -19.2421875 3.046875 C-13.59765741 -1.27529229 -6.67042153 -2.8355102 0 0 Z " fill="#0B0707" transform="translate(224.2421875,166.953125)"/>
<path d="M0 0 C5.86842818 4.72734493 5.86842818 4.72734493 6.63671875 8.92578125 C6.90084418 14.34490636 5.92798809 17.63748649 2.25 21.8125 C-0.67672672 24.18552167 -2.43309204 24.77216626 -6.1875 25.25 C-11.72355879 24.57013313 -14.50832358 22.18152785 -18.1875 18.125 C-20.27580249 13.69779872 -20.09913831 10.47003482 -18.75 5.8125 C-14.39746782 -1.24160387 -7.68149144 -3.31700767 0 0 Z " fill="#F9CA1E" transform="translate(289.75,171.1875)"/>
<path d="M0 0 C0.99 0 1.98 0 3 0 C3 1.98 3 3.96 3 6 C4.57925975 6.39180108 6.16368794 6.76280736 7.75 7.125 C9.07257813 7.43824219 9.07257813 7.43824219 10.421875 7.7578125 C13.32875493 8.03088304 14.56661348 7.53508028 17 6 C17 10 17 10 16 13 C16.6492959 14.34187818 17.31731862 15.67479497 18 17 C18 18.32 18 19.64 18 21 C19.65 21 21.3 21 23 21 C23 21.99 23 22.98 23 24 C21.35 24 19.7 24 18 24 C17.855625 24.9075 17.71125 25.815 17.5625 26.75 C17 30 17 30 16.3125 32.125 C15.89416042 34.63503747 16.70741178 35.87103117 18 38 C14 38 14 38 11 37 C9.31923769 37.63028587 7.65204456 38.29788106 6 39 C5.01 39 4.02 39 3 39 C3 40.98 3 42.96 3 45 C2.01 45 1.02 45 0 45 C0 43.02 0 41.04 0 39 C-0.721875 39.04125 -1.44375 39.0825 -2.1875 39.125 C-5 39 -5 39 -7.5625 37.875 C-9.98415169 36.70802003 -9.98415169 36.70802003 -12.3125 37.875 C-12.869375 38.24625 -13.42625 38.6175 -14 39 C-14 35 -14 35 -13 32 C-13.63028587 30.31923769 -14.29788106 28.65204456 -15 27 C-15 26.01 -15 25.02 -15 24 C-16.98 24 -18.96 24 -21 24 C-21 23.01 -21 22.02 -21 21 C-19.02 21 -17.04 21 -15 21 C-14.7834375 19.63875 -14.7834375 19.63875 -14.5625 18.25 C-14 15 -14 15 -13.3125 12.875 C-12.89416042 10.36496253 -13.70741178 9.12896883 -15 7 C-11 7 -11 7 -8 8 C-5.92352124 7.69193547 -5.92352124 7.69193547 -3.8125 7.0625 C-2.554375 6.711875 -1.29625 6.36125 0 6 C0 4.02 0 2.04 0 0 Z M-9 14 C-11.64201025 18.05108238 -12.70236884 21.1837565 -12 26 C-9.5270844 30.75560692 -6.77884478 33.56372619 -2 36 C2.30179863 36.61454266 4.38396703 36.31986327 8.25 34.3125 C11.67358206 31.43357872 13.55321415 29.39639683 14.38671875 24.92578125 C14.73915119 20.31283226 14.16626493 17.60119343 11.1875 14 C8.07949045 10.68478981 5.78101841 10.0640179 1.1875 9.6875 C-3.20883809 9.76023353 -5.66562988 11.05334733 -9 14 Z " fill="#070306" transform="translate(282,160)"/>
<path d="M0 0 C3.875 4.75 3.875 4.75 5 7 C7.12576782 7.46651207 7.12576782 7.46651207 9.5625 7.625 C10.38878906 7.69976562 11.21507812 7.77453125 12.06640625 7.8515625 C12.70449219 7.90054688 13.34257812 7.94953125 14 8 C13.690625 8.7425 13.38125 9.485 13.0625 10.25 C11.16082035 14.62711362 11.16082035 14.62711362 11.77734375 19.140625 C12.16019531 19.83671875 12.54304688 20.5328125 12.9375 21.25 C13.31777344 21.95640625 13.69804687 22.6628125 14.08984375 23.390625 C14.39019531 23.92171875 14.69054687 24.4528125 15 25 C14.32453125 24.99097656 13.6490625 24.98195312 12.953125 24.97265625 C7.68808819 24.96782307 7.68808819 24.96782307 3.4453125 27.625 C2.21363994 29.76008965 2.21363994 29.76008965 1 33 C-0.80146804 31.36230178 -1.90908176 30.24002416 -2.78125 27.9375 C-3.84866475 25.74754139 -3.84866475 25.74754139 -6.3828125 25.390625 C-7.74019531 25.32101563 -7.74019531 25.32101563 -9.125 25.25 C-10.03507812 25.19328125 -10.94515625 25.1365625 -11.8828125 25.078125 C-12.93082031 25.03945312 -12.93082031 25.03945312 -14 25 C-13.690625 24.29875 -13.38125 23.5975 -13.0625 22.875 C-11.32025631 18.16069355 -10.41290201 15.37840398 -12.4375 10.625 C-13.2109375 9.325625 -13.2109375 9.325625 -14 8 C-10.7 8 -7.4 8 -4 8 C-3.71125 7.236875 -3.4225 6.47375 -3.125 5.6875 C-2 3 -2 3 0 0 Z " fill="#0A0508" transform="translate(287,104)"/>
<path d="M0 0 C0.99 0.33 1.98 0.66 3 1 C4.1875 4.0625 4.1875 4.0625 5 7 C8.3 7 11.6 7 15 7 C14.690625 7.721875 14.38125 8.44375 14.0625 9.1875 C13.0363217 11.90385433 12.21722962 14.10360503 12 17 C13.37249963 19.67676547 13.37249963 19.67676547 15 22 C15 22.66 15 23.32 15 24 C11.7 24 8.4 24 5 24 C4.731875 24.969375 4.46375 25.93875 4.1875 26.9375 C3.795625 27.948125 3.40375 28.95875 3 30 C2.01 30.33 1.02 30.66 0 31 C-3 26.25 -3 26.25 -3 24 C-6.3 24 -9.6 24 -13 24 C-12.690625 23.278125 -12.38125 22.55625 -12.0625 21.8125 C-11.0363217 19.09614567 -10.21722962 16.89639497 -10 14 C-11.37249963 11.32323453 -11.37249963 11.32323453 -13 9 C-13 8.34 -13 7.68 -13 7 C-9.7 7 -6.4 7 -3 7 C-2.690625 6.030625 -2.38125 5.06125 -2.0625 4.0625 C-1 1 -1 1 0 0 Z " fill="#08050B" transform="translate(249,96)"/>
<path d="M0 0 C0.66 0 1.32 0 2 0 C5 5.75 5 5.75 5 8 C8.3 8 11.6 8 15 8 C14.484375 9.051875 13.96875 10.10375 13.4375 11.1875 C11.99772563 14.54021402 11.85108474 16.45751129 13 20 C13.185625 20.763125 13.37125 21.52625 13.5625 22.3125 C13.706875 22.869375 13.85125 23.42625 14 24 C12.7625 24.020625 11.525 24.04125 10.25 24.0625 C7.5415484 24.36984203 6.39586737 24.54758015 4.578125 26.625 C3.34385415 28.77001463 3.34385415 28.77001463 2 32 C1.01 31.67 0.02 31.34 -1 31 C-1.350625 30.175 -1.70125 29.35 -2.0625 28.5 C-3.73885554 25.79106792 -3.73885554 25.79106792 -6.4140625 25.44921875 C-8.94803849 25.21009707 -11.45566882 25.05250965 -14 25 C-13.319375 23.948125 -12.63875 22.89625 -11.9375 21.8125 C-10.50332095 19.29381806 -9.98431493 18.32938644 -10.125 15.375 C-11.03895924 12.89425348 -11.95843623 10.43031545 -13 8 C-12.39671875 8.00902344 -11.7934375 8.01804687 -11.171875 8.02734375 C-8.61470177 7.93248087 -6.45386542 7.74333961 -4 7 C-1.96119166 4.77389955 -1.1862622 2.83671396 0 0 Z " fill="#0B080E" transform="translate(212,104)"/>
<path d="M0 0 C8.01494846 -0.27908417 15.64749025 0.80161489 23.5625 2 C24.85736328 2.19078125 26.15222656 2.3815625 27.48632812 2.578125 C30.65845229 3.04633521 33.82957613 3.52043473 37 4 C37 4.33 37 4.66 37 5 C34.03 5 31.06 5 28 5 C28 6.32 28 7.64 28 9 C32.455 9.99 32.455 9.99 37 11 C36.67 11.66 36.34 12.32 36 13 C32.44219804 12.39009109 29.3171411 11.4216319 26 10 C26 8.02 26 6.04 26 4 C25.01 4 24.02 4 23 4 C23 5.98 23 7.96 23 10 C21.42298018 10.55978184 19.83800758 11.09719401 18.25 11.625 C17.36828125 11.92664063 16.4865625 12.22828125 15.578125 12.5390625 C12.58982529 13.07333427 11.50076998 12.62433191 9 11 C9.350625 11.5775 9.70125 12.155 10.0625 12.75 C11.20021564 15.48051754 10.96938066 16.25342145 10 19 C9.649375 20.0725 9.29875 21.145 8.9375 22.25 C8.628125 23.1575 8.31875 24.065 8 25 C6.02 25 4.04 25 2 25 C2 25.99 2 26.98 2 28 C3.98 28 5.96 28 8 28 C8.33 29.65 8.66 31.3 9 33 C8.34 33 7.68 33 7 33 C7 31.68 7 30.36 7 29 C5.35 29 3.7 29 2 29 C2 38.57 2 48.14 2 58 C1.67 58 1.34 58 1 58 C-0.19388403 18.16047091 -0.19388403 18.16047091 0 0 Z " fill="#5E5EB3" transform="translate(259,156)"/>
<path d="M0 0 C3.85036851 1.51264477 5.88348422 3.44727709 8 7 C8.91148893 11.11714917 8.94205101 14.51068814 6.6484375 18.13671875 C5.1722542 19.86126464 3.66518002 21.4587173 2 23 C-0.93106007 22.4162459 -1.93011719 22.06588951 -4.1875 19.9375 C-6.45269209 16.26632662 -7.21944174 13.30443412 -7 9 C-5.48331008 4.76923338 -3.82257052 2.37262998 0 0 Z " fill="#F3F3F3" transform="translate(222,171)"/>
<path d="M0 0 C-0.66 0.928125 -1.32 1.85625 -2 2.8125 C-4.77281655 7.70454064 -4.81418972 12.51987688 -4 18 C-2.9236292 20.95074064 -1.63488734 23.29221784 0 26 C-3.27175308 26 -5.38521478 25.4920736 -7.95703125 23.43359375 C-11.06188892 20.2022653 -13.44802262 17.47828736 -13.6875 12.875 C-12.76627383 7.68263434 -10.81169249 4.75325079 -7.0625 1.125 C-4.55059261 -0.2451313 -2.81972723 -0.23497727 0 0 Z " fill="#DFBA2F" transform="translate(217,170)"/>
<path d="M0 0 C0.66 0 1.32 0 2 0 C2.33 1.32 2.66 2.64 3 4 C4.98 4 6.96 4 9 4 C8.7215625 5.670625 8.7215625 5.670625 8.4375 7.375 C7.68319343 10.82568861 7.68319343 10.82568861 9 13 C7.02 13 5.04 13 3 13 C2.67 14.32 2.34 15.64 2 17 C1.34 17 0.68 17 0 17 C-0.33 15.68 -0.66 14.36 -1 13 C-2.98 13 -4.96 13 -7 13 C-6.814375 12.071875 -6.62875 11.14375 -6.4375 10.1875 C-5.75876119 6.98656229 -5.75876119 6.98656229 -7 4 C-5.02 4 -3.04 4 -1 4 C-0.67 2.68 -0.34 1.36 0 0 Z " fill="#F0C62A" transform="translate(249,103)"/>
<path d="M0 0 C3 1 3 1 4 3 C6.52733235 3.65555119 6.52733235 3.65555119 9 4 C8.814375 4.928125 8.62875 5.85625 8.4375 6.8125 C7.75876119 10.01343771 7.75876119 10.01343771 9 13 C8.05125 13.28875 7.1025 13.5775 6.125 13.875 C2.94788422 14.76825109 2.94788422 14.76825109 1 17 C0.34 16.01 -0.32 15.02 -1 14 C-3.56282742 13.27034634 -3.56282742 13.27034634 -6 13 C-5.814375 12.071875 -5.62875 11.14375 -5.4375 10.1875 C-4.75876119 6.98656229 -4.75876119 6.98656229 -6 4 C-4.35 4 -2.7 4 -1 4 C-0.67 2.68 -0.34 1.36 0 0 Z " fill="#ECC42C" transform="translate(286,112)"/>
<path d="M0 0 C0.66 0 1.32 0 2 0 C2.33 1.32 2.66 2.64 3 4 C4.65 4 6.3 4 8 4 C7.79375 4.7425 7.5875 5.485 7.375 6.25 C6.95591249 9.32330841 7.38050989 10.42786866 9 13 C7.02 13 5.04 13 3 13 C2.34 14.32 1.68 15.64 1 17 C0.34 15.68 -0.32 14.36 -1 13 C-2.98 13 -4.96 13 -7 13 C-6.814375 12.071875 -6.62875 11.14375 -6.4375 10.1875 C-5.75876119 6.98656229 -5.75876119 6.98656229 -7 4 C-5.824375 3.8453125 -5.824375 3.8453125 -4.625 3.6875 C-1.66954819 3.22404978 -1.66954819 3.22404978 0 0 Z " fill="#DEBB3A" transform="translate(212,112)"/>
<path d="M0 0 C0.99 0 1.98 0 3 0 C3 1.98 3 3.96 3 6 C5.31 6.66 7.62 7.32 10 8 C8 10 8 10 4.91796875 10.16015625 C3.68691406 10.12792969 2.45585937 10.09570312 1.1875 10.0625 C-3.06174001 9.95951526 -6.86239493 9.98333133 -11 11 C-11.9327418 15.099361 -12.28825262 19.12043288 -12.5625 23.3125 C-12.64628906 24.56675781 -12.73007812 25.82101563 -12.81640625 27.11328125 C-12.87699219 28.06589844 -12.93757813 29.01851562 -13 30 C-15 27 -15 27 -15 24 C-16.98 24 -18.96 24 -21 24 C-21 23.01 -21 22.02 -21 21 C-19.02 21 -17.04 21 -15 21 C-14.7834375 19.63875 -14.7834375 19.63875 -14.5625 18.25 C-14 15 -14 15 -13.3125 12.875 C-12.89416042 10.36496253 -13.70741178 9.12896883 -15 7 C-11 7 -11 7 -8 8 C-5.92352124 7.69193547 -5.92352124 7.69193547 -3.8125 7.0625 C-2.554375 6.711875 -1.29625 6.36125 0 6 C0 4.02 0 2.04 0 0 Z " fill="#020111" transform="translate(282,160)"/>
<path d="M0 0 C0.66 0 1.32 0 2 0 C2.33 1.32 2.66 2.64 3 4 C-2.75 9 -2.75 9 -5 9 C-5 9.66 -5 10.32 -5 11 C-5.66 11 -6.32 11 -7 11 C-6.649375 11.556875 -6.29875 12.11375 -5.9375 12.6875 C-4.78154007 15.53886783 -5.19032562 17.08517222 -6 20 C-4.35 20.33 -2.7 20.66 -1 21 C-0.67 21.99 -0.34 22.98 0 24 C-0.66 24.66 -1.32 25.32 -2 26 C-2.33 25.01 -2.66 24.02 -3 23 C-5.64 23 -8.28 23 -11 23 C-10.773125 21.783125 -10.54625 20.56625 -10.3125 19.3125 C-9.78124717 15.25631282 -10.54483009 13.33903108 -13 10 C-13 9.34 -13 8.68 -13 8 C-12.39671875 8.00902344 -11.7934375 8.01804687 -11.171875 8.02734375 C-8.61470177 7.93248087 -6.45386542 7.74333961 -4 7 C-1.96119166 4.77389955 -1.1862622 2.83671396 0 0 Z " fill="#02010F" transform="translate(212,104)"/>
<path d="M0 0 C0.66 0.33 1.32 0.66 2 1 C1.34 2.98 0.68 4.96 0 7 C0.78375 6.938125 1.5675 6.87625 2.375 6.8125 C3.674375 6.9053125 3.674375 6.9053125 5 7 C5.99 8.485 5.99 8.485 7 10 C8.65 9.34 10.3 8.68 12 8 C12 8.66 12 9.32 12 10 C15.3 10 18.6 10 22 10 C22 10.33 22 10.66 22 11 C21.32453125 10.99097656 20.6490625 10.98195312 19.953125 10.97265625 C14.68808819 10.96782307 14.68808819 10.96782307 10.4453125 13.625 C9.21363994 15.76008965 9.21363994 15.76008965 8 19 C6.19853196 17.36230178 5.09091824 16.24002416 4.21875 13.9375 C3.15133525 11.74754139 3.15133525 11.74754139 0.6171875 11.390625 C-0.74019531 11.32101563 -0.74019531 11.32101563 -2.125 11.25 C-3.03507812 11.19328125 -3.94515625 11.1365625 -4.8828125 11.078125 C-5.58148438 11.05234375 -6.28015625 11.0265625 -7 11 C-6 9 -6 9 -4 8 C-1.77748243 5.42187962 -0.59935965 3.35641407 0 0 Z " fill="#0D0D26" transform="translate(280,118)"/>
<path d="M0 0 C0.495 0.99 0.495 0.99 1 2 C0.07767578 2.09474609 0.07767578 2.09474609 -0.86328125 2.19140625 C-1.67152344 2.31386719 -2.47976562 2.43632812 -3.3125 2.5625 C-4.11300781 2.66691406 -4.91351563 2.77132812 -5.73828125 2.87890625 C-8.97151965 4.17701084 -8.97151965 4.17701084 -11 11 C-3.08 11.66 4.84 12.32 13 13 C12.505 9.535 12.505 9.535 12 6 C14.1519437 9.22791555 14.20086443 10.28400809 14 14 C3.24082289 14.21125191 -7.24126859 13.59397447 -17.9375 12.5 C-19.41074187 12.35480341 -20.88404918 12.21026928 -22.35742188 12.06640625 C-25.90573089 11.71852732 -29.4530846 11.36184504 -33 11 C-33 10.67 -33 10.34 -33 10 C-31.19402344 10.03480469 -31.19402344 10.03480469 -29.3515625 10.0703125 C-27.77604785 10.08906863 -26.20052652 10.10726899 -24.625 10.125 C-23.8309375 10.14175781 -23.036875 10.15851563 -22.21875 10.17578125 C-20.14507985 10.19335473 -18.07116759 10.10335168 -16 10 C-15.34 9.34 -14.68 8.68 -14 8 C-13.34 8.33 -12.68 8.66 -12 9 C-11.71125 8.05125 -11.4225 7.1025 -11.125 6.125 C-10 3 -10 3 -8 1 C-5.34462628 0.43479997 -2.70855287 0.26211802 0 0 Z " fill="#515194" transform="translate(226,127)"/>
<path d="M0 0 C0.33 0 0.66 0 1 0 C1 5.28 1 10.56 1 16 C-0.98 15.34 -2.96 14.68 -5 14 C-6.60725635 10.78548731 -6.05748185 7.56387464 -6 4 C-5.38125 3.71125 -4.7625 3.4225 -4.125 3.125 C-1.86674235 2.06279958 -1.86674235 2.06279958 0 0 Z " fill="#F4C820" transform="translate(210,175)"/>
<path d="M0 0 C0.33 0.66 0.66 1.32 1 2 C-1.17508418 6.69360269 -1.17508418 6.69360269 -4.1875 7.8125 C-4.785625 7.874375 -5.38375 7.93625 -6 8 C-5.6596875 9.60875 -5.6596875 9.60875 -5.3125 11.25 C-5 15 -5 15 -6.4375 17.4375 C-6.953125 17.953125 -7.46875 18.46875 -8 19 C-6.02 19.33 -4.04 19.66 -2 20 C-2 20.33 -2 20.66 -2 21 C-4.97 21 -7.94 21 -11 21 C-10.649375 20.113125 -10.29875 19.22625 -9.9375 18.3125 C-8.4846726 13.17917653 -9.95084411 9.78136375 -12 5 C-8.7 5 -5.4 5 -2 5 C-1.34 3.35 -0.68 1.7 0 0 Z " fill="#040313" transform="translate(285,107)"/>
<path d="M0 0 C-2.2951829 2.2951829 -7.40331676 1.77199225 -10.5 2.0625 C-11.43803467 2.15192871 -12.37606934 2.24135742 -13.3425293 2.33349609 C-21.91204888 3.09416864 -30.40502207 3.20276488 -39 3 C-39.33 2.34 -39.66 1.68 -40 1 C-34.94672974 0.68902367 -29.893065 0.38609537 -24.83886719 0.09057617 C-23.11998533 -0.01105896 -21.40123138 -0.11488216 -19.68261719 -0.22094727 C-17.21059142 -0.37312689 -14.73821069 -0.51740085 -12.265625 -0.66015625 C-11.11540863 -0.73351952 -11.11540863 -0.73351952 -9.94195557 -0.80836487 C-6.39619398 -1.00580597 -3.40867659 -0.97404651 0 0 Z " fill="#000003" transform="translate(300,141)"/>
<path d="M0 0 C0.32710341 7.93225768 -0.90354345 15.66659062 -2 23.5 C-2.19319768 24.90878714 -2.38591018 26.31764092 -2.578125 27.7265625 C-3.04648818 31.1518284 -3.52142389 34.5761443 -4 38 C-4.33 38 -4.66 38 -5 38 C-5.24634228 30.01896637 -4.47935115 22.28921607 -3.5 14.375 C-3.35691406 13.18003906 -3.21382813 11.98507813 -3.06640625 10.75390625 C-2.71616907 7.83526309 -2.36059639 4.91737822 -2 2 C-2.89513306 2.21438721 -2.89513306 2.21438721 -3.80834961 2.43310547 C-4.60249268 2.61760254 -5.39663574 2.80209961 -6.21484375 2.9921875 C-6.99722412 3.1763623 -7.77960449 3.36053711 -8.58569336 3.55029297 C-12.11236113 4.20719681 -15.42100331 4.13014533 -19 4 C-19 3.67 -19 3.34 -19 3 C-16.20869212 2.49792321 -13.41699129 1.99824925 -10.625 1.5 C-9.8309375 1.35691406 -9.036875 1.21382813 -8.21875 1.06640625 C-2.2265625 0 -2.2265625 0 0 0 Z " fill="#515190" transform="translate(321,85)"/>
<path d="M0 0 C0.99 0.495 0.99 0.495 2 1 C2 1.66 2 2.32 2 3 C2.99 2.67 3.98 2.34 5 2 C5 2.66 5 3.32 5 4 C3.35 4 1.7 4 0 4 C0 2.68 0 1.36 0 0 Z M-11 3 C-9.741875 2.979375 -8.48375 2.95875 -7.1875 2.9375 C-6.47980469 2.92589844 -5.77210938 2.91429688 -5.04296875 2.90234375 C-3 3 -3 3 0 4 C5.72359389 4.23361608 11.32188087 3.63978807 17 3 C17 4.32 17 5.64 17 7 C16.34 7 15.68 7 15 7 C15 6.34 15 5.68 15 5 C14.2575 5.24363281 14.2575 5.24363281 13.5 5.4921875 C10.00516809 6.20207523 6.54957763 6.14429118 3 6.125 C1.93265625 6.13080078 1.93265625 6.13080078 0.84375 6.13671875 C-2.57538017 6.13033978 -5.73293006 6.07200732 -9 5 C-9 5.99 -9 6.98 -9 8 C-9.66 8 -10.32 8 -11 8 C-11 6.35 -11 4.7 -11 3 Z " fill="#55559E" transform="translate(247,124)"/>
<path d="M0 0 C1.32 0.66 2.64 1.32 4 2 C3.21654285 3.17219543 2.42297164 4.33763668 1.625 5.5 C1.18414062 6.1496875 0.74328125 6.799375 0.2890625 7.46875 C-0.34902344 8.22671875 -0.34902344 8.22671875 -1 9 C-1.66 9 -2.32 9 -3 9 C-3 13.29 -3 17.58 -3 22 C-5.99307068 19.00692932 -5.8458282 16.0171405 -6.17578125 11.90625 C-5.88093202 7.03140941 -3.4035172 3.4035172 0 0 Z " fill="#070616" transform="translate(206,169)"/>
<path d="M0 0 C-0.99 0.495 -0.99 0.495 -2 1 C-1.67 2.65 -1.34 4.3 -1 6 C-2.32 6 -3.64 6 -5 6 C-5 6.66 -5 7.32 -5 8 C-6.98 7.34 -8.96 6.68 -11 6 C-11 4.02 -11 2.04 -11 0 C-6.94952424 -1.35015859 -4.2079832 -0.62084998 0 0 Z " fill="#FDCE1B" transform="translate(219,117)"/>
<path d="M0 0 C3.2910841 3.60957611 4.54663921 6.12637153 5 11 C5.99 11.33 6.98 11.66 8 12 C5.75 12.25 5.75 12.25 3 12 C0.6875 10 0.6875 10 -1 8 C-1.33 9.32 -1.66 10.64 -2 12 C-3.98 12.33 -5.96 12.66 -8 13 C-8 12.34 -8 11.68 -8 11 C-7.236875 10.62875 -6.47375 10.2575 -5.6875 9.875 C-1.82330072 7.17904701 -1.38451961 4.44503664 0 0 Z " fill="#1B150D" transform="translate(287,104)"/>
<path d="M0 0 C0.33 0.66 0.66 1.32 1 2 C3.64 2 6.28 2 9 2 C9.33 2.66 9.66 3.32 10 4 C10.639375 3.814375 11.27875 3.62875 11.9375 3.4375 C12.618125 3.293125 13.29875 3.14875 14 3 C14.33 3.33 14.66 3.66 15 4 C14.71269945 6.33944736 14.38063221 8.6739143 14 11 C13.01 10.67 12.02 10.34 11 10 C10.649375 9.175 10.29875 8.35 9.9375 7.5 C8.26114446 4.79106792 8.26114446 4.79106792 5.5859375 4.44921875 C3.05196151 4.21009707 0.54433118 4.05250965 -2 4 C-1.34 2.68 -0.68 1.36 0 0 Z " fill="#0A0914" transform="translate(200,125)"/>
<path d="M0 0 C0.99 0.33 1.98 0.66 3 1 C3.33 2.65 3.66 4.3 4 6 C4.66 6 5.32 6 6 6 C6 6.66 6 7.32 6 8 C6.66 8 7.32 8 8 8 C7.67 8.66 7.34 9.32 7 10 C5.35 9.67 3.7 9.34 2 9 C1.67 7.68 1.34 6.36 1 5 C0.443125 5.66 -0.11375 6.32 -0.6875 7 C-3 9 -3 9 -5.75 9.25 C-6.4925 9.1675 -7.235 9.085 -8 9 C-7.34 8.67 -6.68 8.34 -6 8 C-6 7.34 -6 6.68 -6 6 C-4.34997172 4.64613064 -2.6825613 3.31321858 -1 2 C-0.67 1.34 -0.34 0.68 0 0 Z " fill="#1E160B" transform="translate(213,107)"/>
<path d="M0 0 C0.99 0.33 1.98 0.66 3 1 C1.25 6.75 1.25 6.75 -1 9 C-1.33 9.99 -1.66 10.98 -2 12 C-3.20442708 10.50260417 -4.40885417 9.00520833 -5.61328125 7.5078125 C-7.12270545 5.74707893 -7.12270545 5.74707893 -10 4 C-9.36191406 3.79503906 -8.72382813 3.59007812 -8.06640625 3.37890625 C-7.24011719 3.10949219 -6.41382813 2.84007812 -5.5625 2.5625 C-4.73878906 2.29566406 -3.91507812 2.02882812 -3.06640625 1.75390625 C-1.03780412 1.17844506 -1.03780412 1.17844506 0 0 Z " fill="#140E0E" transform="translate(297,166)"/>
<path d="M0 0 C1.5625 1.1875 1.5625 1.1875 3 3 C2.6875 5.6875 2.6875 5.6875 2 8 C3.65 8.33 5.3 8.66 7 9 C7.33 9.99 7.66 10.98 8 12 C7.34 12.66 6.68 13.32 6 14 C5.67 13.01 5.34 12.02 5 11 C2.36 11 -0.28 11 -3 11 C-2.67 9.35 -2.34 7.7 -2 6 C-1.34 6 -0.68 6 0 6 C0 4.02 0 2.04 0 0 Z " fill="#0D0704" transform="translate(204,116)"/>
<path d="M0 0 C0.66 0.33 1.32 0.66 2 1 C1.34 2.98 0.68 4.96 0 7 C1.65 7 3.3 7 5 7 C5.66 8.65 6.32 10.3 7 12 C0.07 11.505 0.07 11.505 -7 11 C-6 9 -6 9 -4 8 C-1.77748243 5.42187962 -0.59935965 3.35641407 0 0 Z " fill="#191217" transform="translate(280,118)"/>
<path d="M0 0 C3.3 0 6.6 0 10 0 C10.33 0.99 10.66 1.98 11 3 C9.35 3 7.7 3 6 3 C5.814375 4.9490625 5.814375 4.9490625 5.625 6.9375 C5.4140625 9.15234375 5.4140625 9.15234375 5 11 C4.01 11.495 4.01 11.495 3 12 C2.814375 10.4221875 2.814375 10.4221875 2.625 8.8125 C2.08859218 5.54041229 1.36119965 2.99463924 0 0 Z " fill="#03010A" transform="translate(236,103)"/>
<path d="M0 0 C1.32 0.33 2.64 0.66 4 1 C4.33 2.32 4.66 3.64 5 5 C3.741875 5.103125 2.48375 5.20625 1.1875 5.3125 C-1.60499657 5.64858808 -2.74433121 5.80025876 -5 7.5625 C-5.33 8.036875 -5.66 8.51125 -6 9 C-7.125 4.25 -7.125 4.25 -6 2 C-4.02 2 -2.04 2 0 2 C0 1.34 0 0.68 0 0 Z " fill="#080203" transform="translate(221,123)"/>
<path d="M0 0 C0.99 0.33 1.98 0.66 3 1 C-3.39076259 7.74580495 -3.39076259 7.74580495 -8.7265625 8.265625 C-9.68304688 8.26046875 -10.63953125 8.2553125 -11.625 8.25 C-12.58664063 8.25515625 -13.54828125 8.2603125 -14.5390625 8.265625 C-17 8 -17 8 -19 6 C-17.44539062 5.97873047 -17.44539062 5.97873047 -15.859375 5.95703125 C-14.48953943 5.91011907 -13.11974913 5.86187173 -11.75 5.8125 C-10.72712891 5.80379883 -10.72712891 5.80379883 -9.68359375 5.79492188 C-5.7793748 5.6243492 -4.2858705 5.29351169 -1.515625 2.44921875 C-1.01546875 1.64097656 -0.5153125 0.83273438 0 0 Z " fill="#040419" transform="translate(228,191)"/>
<path d="M0 0 C4.95 0 9.9 0 15 0 C12 2 12 2 9 2 C9 3.98 9 5.96 9 8 C8.01 8 7.02 8 6 8 C6 6.02 6 4.04 6 2 C4.35 2 2.7 2 1 2 C0.67 1.34 0.34 0.68 0 0 Z " fill="#020217" transform="translate(276,197)"/>
<path d="M0 0 C0.33 1.32 0.66 2.64 1 4 C1.66 4 2.32 4 3 4 C3.68271293 12.35104207 4.15392039 20.61988971 4 29 C3.67 29 3.34 29 3 29 C2.4935767 25.29251453 1.99600845 21.58389201 1.5 17.875 C1.35691406 16.82828125 1.21382812 15.7815625 1.06640625 14.703125 C0.41114246 9.77304508 -0.20707401 4.98703253 0 0 Z " fill="#535396" transform="translate(182,110)"/>
<path d="M0 0 C3.96 0.33 7.92 0.66 12 1 C12 1.33 12 1.66 12 2 C9.03 2 6.06 2 3 2 C3 3.32 3 4.64 3 6 C7.455 6.99 7.455 6.99 12 8 C11.67 8.66 11.34 9.32 11 10 C7.44219804 9.39009109 4.3171411 8.4216319 1 7 C0.67 4.69 0.34 2.38 0 0 Z " fill="#575798" transform="translate(284,159)"/>
<path d="M0 0 C0.66 0.33 1.32 0.66 2 1 C3.52148326 1.08372659 5.04655778 1.10730027 6.5703125 1.09765625 C7.91416016 1.09282227 7.91416016 1.09282227 9.28515625 1.08789062 C10.69087891 1.07532227 10.69087891 1.07532227 12.125 1.0625 C13.54232422 1.05573242 13.54232422 1.05573242 14.98828125 1.04882812 C17.32558387 1.03702357 19.66276061 1.02055759 22 1 C21.67 1.66 21.34 2.32 21 3 C11.43 3.33 1.86 3.66 -8 4 C-8 3.67 -8 3.34 -8 3 C-6.865625 2.87625 -5.73125 2.7525 -4.5625 2.625 C-3.386875 2.41875 -2.21125 2.2125 -1 2 C-0.67 1.34 -0.34 0.68 0 0 Z " fill="#535395" transform="translate(286,136)"/>
<path d="M0 0 C0.66 0 1.32 0 2 0 C2.05386629 2.12472576 2.09273071 4.24983652 2.125 6.375 C2.14820313 7.55835938 2.17140625 8.74171875 2.1953125 9.9609375 C2 13 2 13 0 15 C-1.6117046 10.1648862 -1.60116168 4.80348505 0 0 Z " fill="#020210" transform="translate(231,176)"/>
<path d="M0 0 C3.3 0 6.6 0 10 0 C8.92598892 2.91517292 8.22189824 4.77810176 6 7 C5.34 6.01 4.68 5.02 4 4 C3.01 3.67 2.02 3.34 1 3 C0.67 2.01 0.34 1.02 0 0 Z " fill="#02010D" transform="translate(291,112)"/>
<path d="M0 0 C0.66 0 1.32 0 2 0 C3.6875 2.3125 3.6875 2.3125 5 5 C4.67 5.99 4.34 6.98 4 8 C3.05125 7.67 2.1025 7.34 1.125 7 C-1.77062452 5.89840809 -1.77062452 5.89840809 -4 6 C-2.84826645 3.53199953 -1.95216435 1.95216435 0 0 Z " fill="#020112" transform="translate(295,191)"/>
<path d="M0 0 C0.33 0 0.66 0 1 0 C1.33 1.65 1.66 3.3 2 5 C2.66 5 3.32 5 4 5 C3.25 7.9375 3.25 7.9375 2 11 C0 11.75 0 11.75 -2 12 C-2.66 12.66 -3.32 13.32 -4 14 C-4.99 13.67 -5.98 13.34 -7 13 C-6.21625 12.34 -5.4325 11.68 -4.625 11 C-1.3549438 7.26279291 -0.89790231 4.81602145 0 0 Z " fill="#1B130F" transform="translate(296,181)"/>
<path d="M0 0 C0.99 0 1.98 0 3 0 C3.33 1.32 3.66 2.64 4 4 C4.66 4 5.32 4 6 4 C6.33 2.68 6.66 1.36 7 0 C7.66 0.33 8.32 0.66 9 1 C8.67 2.98 8.34 4.96 8 7 C6.68 7.33 5.36 7.66 4 8 C2 5 2 5 2 1 C1.34 0.67 0.68 0.34 0 0 Z " fill="#150D02" transform="translate(245,116)"/>
<path d="M0 0 C0 0.33 0 0.66 0 1 C-1.19625 1.226875 -2.3925 1.45375 -3.625 1.6875 C-8.16767308 2.7948776 -10.64032749 4.80831111 -14 8 C-14 6.02 -14 4.04 -14 2 C-9.35150485 -0.3992233 -5.08913926 -0.19957409 0 0 Z " fill="#1A1001" transform="translate(285,169)"/>
<path d="M0 0 C1.123199 2.9203174 1.0116226 3.96718325 -0.0625 7 C-1.32466506 9.89710916 -1.32466506 9.89710916 -0.0625 12.1875 C0.288125 12.785625 0.63875 13.38375 1 14 C0.67 14.99 0.34 15.98 0 17 C-4.01878914 10.78914405 -4.01878914 10.78914405 -3.9375 7.375 C-2.88478579 4.70812399 -1.57312703 2.39388897 0 0 Z " fill="#5D5DA9" transform="translate(264,103)"/>
<path d="M0 0 C0.87398437 0.09087891 0.87398437 0.09087891 1.765625 0.18359375 C8.50409957 0.87227433 15.24850516 1.45477619 22 2 C22 2.33 22 2.66 22 3 C19.08277452 3.08103404 16.16780484 3.14051081 13.25 3.1875 C12.0125 3.22520508 12.0125 3.22520508 10.75 3.26367188 C4.57702246 3.33834499 4.57702246 3.33834499 1.421875 1.48828125 C0.95265625 0.99714844 0.4834375 0.50601563 0 0 Z " fill="#56569D" transform="translate(193,88)"/>
<path d="M0 0 C1.32 0.66 2.64 1.32 4 2 C2.02 4.97 2.02 4.97 0 8 C-0.66 7.34 -1.32 6.68 -2 6 C-2.99 6.495 -2.99 6.495 -4 7 C-2.92598892 4.08482708 -2.22189824 2.22189824 0 0 Z " fill="#151018" transform="translate(206,169)"/>
<path d="M0 0 C0.33 0.99 0.66 1.98 1 3 C0.67 3.33 0.34 3.66 0 4 C-0.36760731 6.32817964 -0.70241581 8.6618385 -1 11 C-1.33 10.34 -1.66 9.68 -2 9 C-2.99 9.33 -3.98 9.66 -5 10 C-4.55090939 8.51800098 -4.09043436 7.03944764 -3.625 5.5625 C-3.36976563 4.73878906 -3.11453125 3.91507813 -2.8515625 3.06640625 C-2 1 -2 1 0 0 Z " fill="#121216" transform="translate(302,143)"/>
<path d="M0 0 C0 0.33 0 0.66 0 1 C-1.5778125 1.433125 -1.5778125 1.433125 -3.1875 1.875 C-8.67937938 3.49555457 -12.116167 4.68463 -16 9 C-15.04872818 5.57542144 -14.07456145 4.06568509 -11.375 1.6875 C-7.13884627 -0.43057686 -4.67230248 -0.32222776 0 0 Z " fill="#DDBA37" transform="translate(287,170)"/>
<path d="M0 0 C3 1 3 1 4.3125 3.375 C4.6528125 4.674375 4.6528125 4.674375 5 6 C4.01 7.485 4.01 7.485 3 9 C0.90250005 6.64031256 0.03094296 5.45383006 -0.1875 2.25 C-0.125625 1.5075 -0.06375 0.765 0 0 Z " fill="#0A0A17" transform="translate(227,170)"/>
<path d="M0 0 C0.66 0 1.32 0 2 0 C2 1.32 2 2.64 2 4 C3.65 4.33 5.3 4.66 7 5 C6.13375 5.185625 6.13375 5.185625 5.25 5.375 C2.97664233 6.00648824 1.0746471 6.88858191 -1 8 C-1 4.88742431 -0.82638376 2.89234315 0 0 Z " fill="#04041B" transform="translate(269,191)"/>
<path d="M0 0 C3.63 0 7.26 0 11 0 C11 0.33 11 0.66 11 1 C9.02 1 7.04 1 5 1 C5 2.65 5 4.3 5 6 C3.0625 5.25 3.0625 5.25 1 4 C0.67 2.68 0.34 1.36 0 0 Z " fill="#6263B7" transform="translate(248,93)"/>
<path d="M0 0 C0.66 0.33 1.32 0.66 2 1 C0.515 3.475 0.515 3.475 -1 6 C-0.21625 6.268125 0.5675 6.53625 1.375 6.8125 C4 8 4 8 6 11 C1.56541027 9.6062718 -0.87378374 7.39417765 -4 4 C-2.68 2.68 -1.36 1.36 0 0 Z " fill="#5F8218" transform="translate(214,221)"/>
<path d="M0 0 C-1.32 2.31 -2.64 4.62 -4 7 C-4.103125 6.360625 -4.20625 5.72125 -4.3125 5.0625 C-4.539375 4.381875 -4.76625 3.70125 -5 3 C-5.99 2.67 -6.98 2.34 -8 2 C-4.77208445 -0.1519437 -3.71599191 -0.20086443 0 0 Z " fill="#D8B739" transform="translate(217,170)"/>
<path d="M0 0 C0.33 0.66 0.66 1.32 1 2 C3.64 2 6.28 2 9 2 C9 2.66 9 3.32 9 4 C5.37 4 1.74 4 -2 4 C-1.34 2.68 -0.68 1.36 0 0 Z " fill="#15153A" transform="translate(200,125)"/>
<path d="M0 0 C3.3 0 6.6 0 10 0 C9.34 1.65 8.68 3.3 8 5 C7.67 4.01 7.34 3.02 7 2 C5.02 2 3.04 2 1 2 C0.67 1.34 0.34 0.68 0 0 Z " fill="#01011B" transform="translate(254,103)"/>
<path d="M0 0 C3.3 0 6.6 0 10 0 C9.67 0.66 9.34 1.32 9 2 C7.02 2 5.04 2 3 2 C2.67 2.99 2.34 3.98 2 5 C1.34 3.35 0.68 1.7 0 0 Z " fill="#01011B" transform="translate(236,103)"/>
<path d="M0 0 C3.63 0.66 7.26 1.32 11 2 C11 2.33 11 2.66 11 3 C4.25 3.125 4.25 3.125 2 2 C1.67 3.65 1.34 5.3 1 7 C0.67 7 0.34 7 0 7 C0 4.69 0 2.38 0 0 Z " fill="#53528F" transform="translate(179,85)"/>
<path d="M0 0 C0.33 1.32 0.66 2.64 1 4 C-0.06893218 5.03590338 -1.15578488 6.05333942 -2.25 7.0625 C-3.15492188 7.91521484 -3.15492188 7.91521484 -4.078125 8.78515625 C-6 10 -6 10 -8.234375 9.68359375 C-8.81703125 9.45800781 -9.3996875 9.23242188 -10 9 C-8.3603125 8.1646875 -8.3603125 8.1646875 -6.6875 7.3125 C-3.31962633 5.41040131 -1.67814024 3.55370875 0 0 Z " fill="#5B5BA6" transform="translate(232,189)"/>
<path d="M0 0 C3.63 0 7.26 0 11 0 C11 4 11 4 10 6 C9.34 6 8.68 6 8 6 C8.33 4.68 8.66 3.36 9 2 C6.03 1.67 3.06 1.34 0 1 C0 0.67 0 0.34 0 0 Z " fill="#5B5BA5" transform="translate(217,111)"/>
<path d="M0 0 C0.33 0.66 0.66 1.32 1 2 C-1.31578947 6.31578947 -1.31578947 6.31578947 -3 8 C-4.66617115 8.04063832 -6.33388095 8.042721 -8 8 C-7 6 -7 6 -5.125 5.125 C-2.63203665 3.80519587 -1.54852219 2.32278328 0 0 Z " fill="#11112C" transform="translate(299,215)"/>
<path d="M0 0 C0.33 0.66 0.66 1.32 1 2 C-0.258125 2.103125 -1.51625 2.20625 -2.8125 2.3125 C-5.60499657 2.64858808 -6.74433121 2.80025876 -9 4.5625 C-9.33 5.036875 -9.66 5.51125 -10 6 C-10.33 4.35 -10.66 2.7 -11 1 C-5.555 0.505 -5.555 0.505 0 0 Z " fill="#02010E" transform="translate(225,126)"/>
<path d="M0 0 C0 1.32 0 2.64 0 4 C-0.66 4 -1.32 4 -2 4 C-2 3.34 -2 2.68 -2 2 C-4.64 2 -7.28 2 -10 2 C-6.5980513 -0.09350689 -3.94727588 -0.17942163 0 0 Z " fill="#5D5DAC" transform="translate(264,127)"/>
<path d="M0 0 C3 4 3 4 2.8125 6.6875 C2 9 2 9 0 10 C0 6.7 0 3.4 0 0 Z " fill="#5D5DA9" transform="translate(237,106)"/>
<path d="M0 0 C0.66 0 1.32 0 2 0 C2.33 1.32 2.66 2.64 3 4 C1.35 5.32 -0.3 6.64 -2 8 C-2.66 7.67 -3.32 7.34 -4 7 C-2.68 4.69 -1.36 2.38 0 0 Z " fill="#090923" transform="translate(212,104)"/>
<path d="M0 0 C0.66 0.33 1.32 0.66 2 1 C2 3.31 2 5.62 2 8 C1.01 7.34 0.02 6.68 -1 6 C-1.25 3.4375 -1.25 3.4375 -1 1 C-0.67 0.67 -0.34 0.34 0 0 Z " fill="#160D02" transform="translate(257,108)"/>
<path d="M0 0 C5.94 1.485 5.94 1.485 12 3 C12 3.33 12 3.66 12 4 C7.01137151 4.29344873 4.03770942 4.05887078 0 1 C0 0.67 0 0.34 0 0 Z " fill="#BA9B27" transform="translate(275,192)"/>
<path d="M0 0 C1.5 1.375 1.5 1.375 3 3 C3 3.66 3 4.32 3 5 C-0.3 5 -3.6 5 -7 5 C-7 4.67 -7 4.34 -7 4 C-4.69 4 -2.38 4 0 4 C0 2.68 0 1.36 0 0 Z " fill="#04041C" transform="translate(261,115)"/>
<path d="M0 0 C0.66 0 1.32 0 2 0 C2.33 1.32 2.66 2.64 3 4 C4.98 4 6.96 4 9 4 C8.34 4.66 7.68 5.32 7 6 C1.25 4.25 1.25 4.25 -1 2 C-0.67 1.34 -0.34 0.68 0 0 Z " fill="#DABA47" transform="translate(249,103)"/>
<path d="M0 0 C2 2 2 2 2.125 4.625 C2.08375 5.40875 2.0425 6.1925 2 7 C0.2925002 5.71937515 -1.37373596 4.38232443 -3 3 C-3 2.34 -3 1.68 -3 1 C-2.01 0.67 -1.02 0.34 0 0 Z " fill="#18141E" transform="translate(206,190)"/>
</svg>
