<?xml version="1.0" standalone="no"?>
<!DOCTYPE svg PUBLIC "-//W3C//DTD SVG 20010904//EN"
 "http://www.w3.org/TR/2001/REC-SVG-20010904/DTD/svg10.dtd">
<svg version="1.0" xmlns="http://www.w3.org/2000/svg"
 width="378.000000pt" height="370.000000pt" viewBox="0 0 378.000000 370.000000"
 preserveAspectRatio="xMidYMid meet">

<g transform="translate(0.000000,370.000000) scale(0.100000,-0.100000)"
fill="#000000" stroke="none">
<path d="M221 2388 c155 -927 225 -1326 244 -1383 197 -588 722 -969 1380
-1002 421 -21 852 138 1136 417 123 121 202 229 273 372 105 212 110 237 221
953 37 237 82 529 101 650 19 121 41 265 49 320 9 55 31 199 50 320 19 121 48
310 65 420 17 110 33 208 36 218 7 22 -1 22 -122 -4 -699 -146 -1440 -204
-2149 -169 -446 23 -967 86 -1360 166 -66 13 -125 24 -130 24 -7 0 76 -521
206 -1302z m1694 716 l26 -45 55 6 c30 3 54 3 54 -1 0 -4 -12 -27 -26 -51
l-26 -44 31 -47 31 -47 -59 -3 c-57 -3 -59 -4 -76 -43 -29 -63 -37 -64 -69 -8
l-28 51 -54 -7 c-30 -3 -54 -3 -54 0 0 4 11 26 25 50 l26 43 -30 49 -30 48 58
3 c57 3 58 3 79 47 12 25 26 45 31 45 5 0 21 -20 36 -46z m-740 -227 c30 3 55
2 55 -3 0 -5 -11 -28 -25 -52 l-24 -43 29 -47 29 -47 -58 -3 -57 -3 -25 -51
-25 -51 -31 50 -31 49 -56 -4 c-31 -2 -56 -1 -56 2 0 3 12 28 27 54 l27 48
-27 39 c-15 22 -27 43 -27 47 0 5 25 8 55 8 l55 0 26 52 26 51 29 -51 30 -50
54 5z m1552 47 l28 -45 53 3 c58 3 61 -2 32 -50 -26 -42 -25 -50 5 -94 14 -20
25 -39 25 -42 0 -4 -25 -6 -55 -6 l-55 0 -25 -50 c-14 -27 -27 -50 -30 -50 -2
0 -16 20 -31 45 l-26 45 -59 0 -60 0 26 43 c31 54 31 59 0 105 -14 20 -25 40
-25 44 0 4 26 8 57 10 56 3 58 4 81 46 13 23 25 42 27 42 2 0 16 -21 32 -46z
m104 -1219 c99 -34 197 -135 225 -232 61 -210 -99 -423 -329 -440 -155 -12
-301 66 -365 194 -45 89 -46 197 -4 287 82 173 285 255 473 191z m-1849 -42
c-22 -27 -54 -77 -73 -113 -30 -59 -34 -73 -34 -150 0 -65 5 -95 20 -125 28
-58 109 -135 195 -186 l75 -44 -50 -3 c-125 -8 -262 47 -325 133 -52 70 -74
135 -74 219 -1 127 63 218 197 282 103 49 119 46 69 -13z m303 11 c64 -30 138
-111 158 -173 44 -139 1 -281 -114 -372 l-39 -30 -57 16 c-88 26 -135 51 -186
101 -87 86 -108 203 -56 305 31 62 51 86 117 136 51 40 62 45 97 40 23 -2 59
-12 80 -23z"/>
</g>
</svg>
